<?xml version="1.0" standalone="no"?>
<!DOCTYPE svg PUBLIC "-//W3C//DTD SVG 20010904//EN"
 "http://www.w3.org/TR/2001/REC-SVG-20010904/DTD/svg10.dtd">
<svg version="1.0" xmlns="http://www.w3.org/2000/svg"
 width="240.000000pt" height="240.000000pt" viewBox="0 0 240.000000 240.000000"
 preserveAspectRatio="xMidYMid meet">
<metadata>
Created by potrace 1.14, written by Peter Selinger 2001-2017
</metadata>
<g transform="translate(0.000000,240.000000) scale(0.100000,-0.100000)"
fill="#000000" stroke="none">
<path d="M658 1808 c-75 -75 -120 -133 -162 -209 -32 -58 -91 -209 -81 -209 2
0 -3 -19 -10 -43 -13 -45 -14 -294 -1 -351 32 -135 95 -262 189 -378 l39 -48
69 0 c38 0 69 2 69 4 0 2 -26 30 -57 62 -88 92 -179 246 -199 339 -20 91 -25
270 -11 350 36 193 150 368 320 489 67 48 69 45 -25 46 l-88 0 -52 -52z"/>
<path d="M1601 1812 c81 -62 174 -162 218 -235 41 -69 88 -203 98 -277 8 -66
8 -188 0 -250 -20 -149 -111 -319 -233 -437 -19 -18 -34 -35 -34 -38 0 -3 29
-5 65 -5 56 0 67 3 91 27 41 40 127 179 158 253 88 211 80 488 -19 697 -31 67
-84 152 -110 179 -5 6 -24 26 -40 45 -71 80 -89 89 -177 89 l-81 0 64 -48z"/>
<path d="M1110 1666 c-248 -50 -345 -282 -180 -430 38 -34 165 -102 209 -111
35 -8 141 -44 169 -59 86 -44 89 -126 8 -166 -53 -25 -114 -30 -181 -15 -65
15 -89 28 -147 83 l-48 44 -61 -45 c-34 -26 -67 -48 -72 -50 -31 -10 78 -109
170 -156 86 -43 227 -58 348 -36 97 18 202 92 232 163 21 51 18 142 -5 189
-43 83 -122 134 -297 192 -164 54 -188 69 -208 132 -3 9 3 30 13 46 52 87 220
84 322 -6 20 -17 38 -31 40 -31 3 0 18 12 34 26 16 14 44 37 62 51 17 14 32
31 32 37 0 16 -85 79 -140 104 -95 43 -204 57 -300 38z"/>
<path d="M268 1630 c-24 -19 -73 -166 -92 -272 -22 -127 -14 -319 18 -442 14
-55 30 -104 35 -109 8 -8 40 -11 89 -8 19 1 21 4 13 20 -15 27 -50 159 -58
216 -9 64 -9 236 0 295 14 89 74 268 98 295 16 17 10 20 -37 20 -28 1 -55 -5
-66 -15z"/>
<path d="M2046 1642 c-2 -2 6 -27 19 -56 58 -131 87 -268 87 -406 0 -99 -2
-117 -26 -235 -3 -11 -13 -48 -24 -82 -11 -35 -16 -64 -11 -64 5 -1 18 -1 29
-1 62 0 77 7 84 42 2 14 11 52 20 85 47 185 42 366 -18 570 -2 6 -7 24 -11 40
-5 17 -18 48 -29 69 -20 37 -24 39 -69 41 -26 1 -49 -1 -51 -3z"/>
<path d="M26 1352 c-3 -3 -6 -58 -6 -122 l0 -116 25 0 c15 0 25 6 26 16 5 60
3 204 -3 213 -7 12 -34 18 -42 9z"/>
<path d="M2342 1237 c3 -114 4 -122 23 -122 19 0 20 8 23 118 1 64 -1 117 -5
118 -4 0 -16 2 -26 4 -16 3 -17 -6 -15 -118z"/>
</g>
</svg>
