<svg width="125" height="16" viewBox="0 0 125 16" fill="none" xmlns="http://www.w3.org/2000/svg">
<rect x="26.0356" y="0.5" width="21.8572" height="14.3572" rx="3.5" fill="white"/>
<path d="M33.9421 7.69705C33.9424 7.50547 33.9261 7.31422 33.8934 7.1254H31.2236V8.20817H32.7527C32.7215 8.3811 32.6552 8.54595 32.5581 8.69279C32.4609 8.83962 32.3348 8.96539 32.1873 9.06251V9.76535H33.0999C33.6343 9.2761 33.9421 8.55256 33.9421 7.69705Z" fill="#4285F4"/>
<path d="M31.2237 10.4444C31.9877 10.4444 32.6309 10.1953 33.1 9.76576L32.1874 9.06292C31.9334 9.23394 31.6063 9.33156 31.2237 9.33156C30.4853 9.33156 29.8586 8.83723 29.6344 8.17109H28.6943V8.89541C28.93 9.36103 29.2913 9.75246 29.7379 10.026C30.1846 10.2995 30.699 10.4444 31.2237 10.4444Z" fill="#34A853"/>
<path d="M29.6344 8.17109C29.5159 7.82203 29.5159 7.44402 29.6344 7.09496V6.37064H28.6943C28.4961 6.76234 28.3928 7.19465 28.3928 7.63302C28.3928 8.0714 28.4961 8.50371 28.6943 8.89541L29.6344 8.17109Z" fill="#FBBC04"/>
<path d="M31.2237 5.93442C31.6274 5.92787 32.0175 6.07935 32.3097 6.35612L33.1177 5.55371C32.6053 5.07581 31.9266 4.81344 31.2237 4.82159C30.699 4.82161 30.1846 4.96647 29.7379 5.24C29.2913 5.51352 28.93 5.90495 28.6943 6.37057L29.6344 7.09489C29.8586 6.42875 30.4853 5.93442 31.2237 5.93442Z" fill="#EA4335"/>
<path d="M36.5002 8.12412V10.1057H35.8672V5.21201H37.5461C37.7465 5.20786 37.9458 5.24315 38.1324 5.31587C38.3189 5.38858 38.4892 5.49727 38.6333 5.63567C38.7788 5.76567 38.8946 5.92509 38.9729 6.10323C39.0513 6.28137 39.0903 6.4741 39.0874 6.66846C39.0916 6.86386 39.0531 7.05784 38.9748 7.23712C38.8964 7.41639 38.7799 7.57672 38.6333 7.7071C38.3397 7.98511 37.9773 8.12399 37.5461 8.12373H36.5002V8.12412ZM36.5002 5.81451V7.5228H37.5618C37.6782 7.52623 37.794 7.50549 37.9019 7.46192C38.0097 7.41835 38.1073 7.35291 38.1882 7.26978C38.2687 7.19205 38.3327 7.09908 38.3764 6.99637C38.4201 6.89365 38.4426 6.78328 38.4426 6.67178C38.4426 6.56027 38.4201 6.4499 38.3764 6.34719C38.3327 6.24447 38.2687 6.1515 38.1882 6.07378C38.1083 5.98889 38.0111 5.92184 37.9031 5.87708C37.7951 5.83231 37.6788 5.81085 37.5618 5.81411H36.5002V5.81451Z" fill="#5F6368"/>
<path d="M40.5462 6.64812C41.014 6.64812 41.3834 6.77229 41.6542 7.02062C41.9249 7.26896 42.0602 7.60945 42.0599 8.04209V10.1057H41.4544V9.64105H41.4269C41.1648 10.0237 40.8161 10.215 40.381 10.215C40.0096 10.215 39.6988 10.1057 39.4488 9.88704C39.3288 9.78668 39.2328 9.661 39.1679 9.51914C39.103 9.37729 39.0708 9.22284 39.0737 9.06706C39.0737 8.72059 39.2055 8.44505 39.4692 8.24044C39.7329 8.03584 40.0849 7.93328 40.5253 7.93275C40.9012 7.93275 41.2108 8.00109 41.454 8.13775V7.99406C41.4547 7.88786 41.4316 7.78283 41.3864 7.68659C41.3412 7.59035 41.275 7.50531 41.1926 7.43764C41.0252 7.28766 40.807 7.20582 40.5815 7.20844C40.2279 7.20844 39.9481 7.35656 39.7421 7.65279L39.1845 7.3041C39.4912 6.86678 39.9451 6.64812 40.5462 6.64812ZM39.7271 9.08073C39.7267 9.16074 39.7455 9.23969 39.7821 9.311C39.8186 9.38232 39.8717 9.44394 39.9371 9.49072C40.0771 9.60009 40.2509 9.65803 40.429 9.65472C40.6961 9.65427 40.9522 9.54868 41.141 9.36108C41.3507 9.16507 41.4556 8.93508 41.4556 8.67113C41.2582 8.51494 40.983 8.43685 40.6299 8.43685C40.3728 8.43685 40.1583 8.49841 39.9866 8.62154C39.8132 8.74649 39.7271 8.89838 39.7271 9.08073Z" fill="#5F6368"/>
<path d="M45.5356 6.75748L43.4218 11.5817H42.7684L43.5528 9.89372L42.1628 6.75748H42.8509L43.8555 9.16276H43.8693L44.8464 6.75748H45.5356Z" fill="#5F6368"/>
<rect x="26.0356" y="0.5" width="21.8572" height="14.3572" rx="3.5" stroke="black"/>
<rect x="51.5715" y="0.5" width="21.8572" height="14.3572" rx="3.5" fill="white"/>
<path d="M68.1618 11.4982C68.9519 11.4982 69.3238 11.1967 69.6486 10.2829L71.0716 6.29161H70.2477L69.2934 9.37953H69.2767L68.3224 6.29579H67.4752L68.848 10.0947L68.7745 10.3258C68.7226 10.6565 68.4256 10.8925 68.0914 10.8681C68.0276 10.8681 67.9039 10.8614 67.8537 10.8548V11.4822C67.9558 11.4961 68.059 11.5027 68.1618 11.5024V11.4982ZM65.4161 9.49942C64.9839 9.49942 64.7096 9.2903 64.7096 8.97384C64.7096 8.64588 64.9742 8.45489 65.4799 8.42457L66.3805 8.36776V8.66261C66.3606 9.14845 65.9504 9.5266 65.4646 9.50674C65.4482 9.50604 65.4321 9.50465 65.4161 9.50325V9.49942ZM65.1986 10.1187C65.689 10.132 66.1477 9.87652 66.3941 9.45237H66.4108V10.0797H67.1608V7.48147C67.1608 6.72796 66.5582 6.24246 65.6304 6.24246C64.7699 6.24246 64.1335 6.73458 64.1102 7.41106H64.8403C64.9275 7.06707 65.2544 6.84018 65.6071 6.87852C66.1027 6.87852 66.3805 7.10959 66.3805 7.53479V7.82267L65.3698 7.88296C64.4287 7.93977 63.9199 8.32489 63.9199 8.99476C63.9192 9.67403 64.4448 10.1226 65.1983 10.1226L65.1986 10.1187ZM60.8522 5.54158H61.7862C62.4896 5.54158 62.8914 5.91659 62.8914 6.57635C62.8914 7.2361 62.4896 7.61425 61.7831 7.61425H60.8522V5.54158ZM60.0419 4.85847V10.0787H60.8522V8.2991H61.9741C62.8879 8.34824 63.6683 7.64736 63.7174 6.73353C63.7202 6.6816 63.7205 6.63002 63.7184 6.57809C63.7617 5.67437 63.0643 4.90692 62.1605 4.86335C62.1072 4.86091 62.0542 4.86126 62.0009 4.8637L60.0419 4.85847ZM57.3523 5.8326C56.8867 5.80576 56.4883 6.09713 56.2674 6.09713C56.0464 6.09713 55.7048 5.84619 55.3364 5.85316C54.8485 5.86571 54.4038 6.13581 54.1678 6.56311C53.6656 7.4271 54.0371 8.70618 54.5226 9.40915C54.7603 9.75767 55.0454 10.1393 55.4201 10.1257C55.7749 10.1125 55.9157 9.89464 56.3444 9.89464C56.7731 9.89464 56.9003 10.1257 57.2753 10.1187C57.6635 10.1121 57.9082 9.77022 58.1466 9.4217C58.3146 9.17494 58.4453 8.90484 58.5349 8.62009C58.0772 8.42004 57.7806 7.9694 57.7782 7.46996C57.7852 7.02943 58.0159 6.62305 58.3909 6.39198C58.1518 6.05252 57.7681 5.8441 57.353 5.82946L57.3523 5.8326ZM57.0616 5.3715C56.8578 5.62836 56.5458 5.77579 56.2179 5.76986C56.197 5.44992 56.3057 5.1352 56.5193 4.89612C56.7319 4.64936 57.0317 4.49462 57.3558 4.46429C57.3788 4.7933 57.2732 5.11813 57.0609 5.37046" fill="#111111"/>
<rect x="51.5715" y="0.5" width="21.8572" height="14.3572" rx="3.5" stroke="black"/>
<rect width="22.8572" height="15.3572" rx="4" fill="#01326F"/>
<path d="M13.4805 3.88824H9.26221V11.4691H13.4805V3.88824Z" fill="#FF5F00"/>
<path d="M9.52997 7.6808C9.52919 6.95061 9.69457 6.22981 10.0136 5.57299C10.3326 4.91617 10.7969 4.34055 11.3713 3.88971C10.6601 3.33079 9.80598 2.98322 8.9066 2.88675C8.00721 2.79027 7.09883 2.94877 6.28527 3.34414C5.4717 3.7395 4.78578 4.35578 4.3059 5.12253C3.82602 5.88929 3.57153 6.77559 3.57153 7.68013C3.57153 8.58467 3.82602 9.47097 4.3059 10.2377C4.78578 11.0045 5.4717 11.6208 6.28527 12.0161C7.09883 12.4115 8.00721 12.57 8.9066 12.4735C9.80598 12.377 10.6601 12.0295 11.3713 11.4705C10.7971 11.0199 10.3329 10.4444 10.0139 9.78787C9.69487 9.1313 9.52939 8.41077 9.52997 7.6808Z" fill="#EB001B"/>
<path d="M19.1718 7.67929C19.1718 8.5839 18.9172 9.47026 18.4373 10.237C17.9573 11.0038 17.2713 11.6201 16.4576 12.0154C15.6439 12.4107 14.7355 12.5691 13.836 12.4725C12.9366 12.3759 12.0825 12.0281 11.3713 11.469C11.9453 11.0179 12.4094 10.4424 12.7285 9.78577C13.0476 9.12916 13.2134 8.40866 13.2134 7.67862C13.2134 6.94859 13.0476 6.22808 12.7285 5.57148C12.4094 4.91487 11.9453 4.3393 11.3713 3.88821C12.0825 3.32911 12.9366 2.98138 13.836 2.88476C14.7355 2.78815 15.6439 2.94655 16.4576 3.34186C17.2713 3.73716 17.9573 4.35343 18.4373 5.12021C18.9172 5.88699 19.1718 6.77334 19.1718 7.67795V7.67929Z" fill="#F79E1B"/>
<rect x="76.6072" width="22.8572" height="15.3572" rx="4" fill="url(#paint0_linear)"/>
<path d="M88.3301 6.76971C88.3203 7.54082 89.0173 7.97116 89.5423 8.22699C90.0818 8.48952 90.263 8.65785 90.2609 8.89258C90.2568 9.25188 89.8306 9.41043 89.4317 9.4166C88.7357 9.42741 88.3311 9.22872 88.0094 9.07841L87.7587 10.2515C88.0814 10.4003 88.6791 10.53 89.2988 10.5357C90.7536 10.5357 91.7053 9.8176 91.7105 8.70418C91.7162 7.29116 89.7559 7.21292 89.7693 6.58131C89.774 6.38982 89.9567 6.18546 90.3572 6.13347C90.5554 6.10721 91.1026 6.08714 91.7228 6.37283L91.9663 5.23778C91.6328 5.1163 91.204 4.99997 90.6702 4.99997C89.3009 4.99997 88.3378 5.72784 88.3301 6.76971ZM94.3059 5.09777C94.0403 5.09777 93.8164 5.25271 93.7165 5.49053L91.6384 10.4523H93.0921L93.3814 9.65288H95.1578L95.3257 10.4523H96.6069L95.4888 5.09777H94.3059ZM94.5092 6.54424L94.9288 8.5549H93.7798L94.5092 6.54424ZM86.5675 5.09777L85.4217 10.4523H86.8069L87.9522 5.09777H86.5675ZM84.5183 5.09777L83.0764 8.74227L82.4932 5.64341C82.4247 5.2975 82.1545 5.09777 81.8544 5.09777H79.4973L79.4644 5.25323C79.9482 5.35824 80.498 5.52759 80.831 5.70879C81.0349 5.81946 81.0931 5.91624 81.16 6.17928L82.2646 10.4523H83.7286L85.973 5.09777H84.5183Z" fill="white"/>
<rect x="102.143" width="22.8572" height="15.3572" rx="4" fill="#6461FC"/>
<path fill-rule="evenodd" clip-rule="evenodd" d="M114.281 5.07148L113.086 5.32799V4.35894L114.281 4.10717V5.07148ZM116.767 5.60821C116.3 5.60821 116 5.82672 115.834 5.97873L115.772 5.68421H114.724V11.2231L115.914 10.9713L115.919 9.62696C116.091 9.75047 116.343 9.92623 116.762 9.92623C117.614 9.92623 118.391 9.24218 118.391 7.73634C118.386 6.35876 117.6 5.60821 116.767 5.60821ZM116.481 8.88113C116.2 8.88113 116.034 8.78138 115.919 8.65787L115.914 6.89552C116.038 6.75776 116.21 6.66275 116.481 6.66275C116.914 6.66275 117.214 7.14728 117.214 7.76957C117.214 8.40611 116.919 8.88113 116.481 8.88113ZM122.143 7.78384C122.143 6.56777 121.553 5.60821 120.424 5.60821C119.291 5.60821 118.605 6.56777 118.605 7.77434C118.605 9.20418 119.415 9.92622 120.577 9.92622C121.143 9.92622 121.572 9.79796 121.896 9.61745V8.66739C121.572 8.8289 121.2 8.92866 120.729 8.92866C120.267 8.92866 119.857 8.76715 119.805 8.20662H122.134C122.134 8.18047 122.135 8.1211 122.137 8.05269L122.137 8.05243C122.14 7.95932 122.143 7.84951 122.143 7.78384ZM119.791 7.33249C119.791 6.79571 120.119 6.57245 120.419 6.57245C120.71 6.57245 121.019 6.79571 121.019 7.33249H119.791ZM113.086 5.68908H114.281V9.84557H113.086V5.68908ZM111.729 5.68899L111.805 6.04051C112.086 5.52748 112.643 5.63198 112.796 5.68899V6.78155C112.648 6.7293 112.172 6.66279 111.891 7.02857V9.84549H110.7V5.68899H111.729ZM109.424 4.65822L108.262 4.90524L108.257 8.71022C108.257 9.41326 108.786 9.93104 109.491 9.93104C109.881 9.93104 110.167 9.85978 110.324 9.77428V8.80997C110.172 8.87172 109.419 9.09024 109.419 8.3872V6.70085H110.324V5.68903H109.419L109.424 4.65822ZM106.61 6.63902C106.357 6.63902 106.205 6.71028 106.205 6.89554C106.205 7.09781 106.467 7.18679 106.793 7.29718C107.323 7.47714 108.021 7.714 108.024 8.59139C108.024 9.44169 107.343 9.93097 106.353 9.93097C105.943 9.93097 105.495 9.85022 105.053 9.66021V8.52964C105.453 8.74815 105.957 8.90966 106.353 8.90966C106.619 8.90966 106.81 8.83841 106.81 8.61989C106.81 8.39584 106.525 8.29342 106.182 8.16978C105.66 7.98149 105 7.74396 105 6.95254C105 6.11174 105.643 5.60821 106.61 5.60821C107.005 5.60821 107.395 5.66996 107.791 5.82672V6.94304C107.429 6.74828 106.972 6.63902 106.61 6.63902Z" fill="white"/>
<defs>
<linearGradient id="paint0_linear" x1="86.8751" y1="15.3572" x2="91.5982" y2="0.334032" gradientUnits="userSpaceOnUse">
<stop stop-color="#222357"/>
<stop offset="1" stop-color="#254AA5"/>
</linearGradient>
</defs>
</svg>
