<svg width="20" height="20" viewBox="0 0 20 20" fill="none" xmlns="http://www.w3.org/2000/svg">
<path fill-rule="evenodd" clip-rule="evenodd" d="M9.91553 0C15.2452 0 19.5657 4.47715 19.5657 10C19.5657 15.5228 15.2452 20 9.91553 20C4.5859 20 0.265381 15.5228 0.265381 10C0.265381 4.47715 4.5859 0 9.91553 0ZM9.91555 2C5.65184 2 2.19543 5.58172 2.19543 10C2.19543 14.4183 5.65184 18 9.91555 18C14.1792 18 17.6357 14.4183 17.6357 10C17.6357 5.58172 14.1792 2 9.91555 2ZM8.90714 12.7479L5.91416 9.64645C5.72573 9.45119 5.42023 9.45119 5.2318 9.64645C5.04337 9.84172 5.04337 10.1583 5.2318 10.3536L8.60934 13.8535C8.81389 14.0655 9.15121 14.0446 9.32993 13.8089L14.6375 6.80893C14.8021 6.59179 14.7657 6.27747 14.5562 6.10686C14.3467 5.93626 14.0433 5.97397 13.8787 6.19111L8.90714 12.7479Z" fill="white"/>
</svg>
