<svg width="16" height="16" viewBox="0 0 16 16" fill="none" xmlns="http://www.w3.org/2000/svg">
<path fill-rule="evenodd" clip-rule="evenodd" d="M2.4 0H4C4.44183 0 4.8 0.358172 4.8 0.8C4.8 1.21027 4.49117 1.54841 4.0933 1.59462L4 1.6H2.4C1.98973 1.6 1.65159 1.90883 1.60538 2.3067L1.6 2.4V13.6C1.6 14.0103 1.90883 14.3484 2.3067 14.3946L2.4 14.4H13.6C14.0103 14.4 14.3484 14.0912 14.3946 13.6933L14.4 13.6V12C14.4 11.5582 14.7582 11.2 15.2 11.2C15.6103 11.2 15.9484 11.5088 15.9946 11.9067L16 12V13.6C16 14.8781 15.0009 15.9229 13.741 15.9959L13.6 16H2.4C1.12186 16 0.0770713 15.0009 0.00407415 13.741L0 13.6V2.4C0 1.12186 0.999136 0.0770713 2.25898 0.00407415L2.4 0H4H2.4ZM15.2 0L15.2648 0.0024L15.3606 0.0161921L15.4497 0.0397905L15.5386 0.0749387L15.6166 0.116796L15.6934 0.170229L15.7657 0.234315L15.8429 0.323755L15.9003 0.41275L15.9251 0.461521L15.9521 0.52668L15.9713 0.587206L15.9945 0.705524L16 0.8V5.6C16 6.04183 15.6418 6.4 15.2 6.4C14.7582 6.4 14.4 6.04183 14.4 5.6V2.7312L9.36569 7.76569C9.0773 8.05407 8.62351 8.07626 8.30968 7.83224L8.23431 7.76569C7.94593 7.4773 7.92374 7.02351 8.16776 6.70968L8.23431 6.63432L13.2672 1.6H10.4C9.95817 1.6 9.6 1.24183 9.6 0.8C9.6 0.358172 9.95817 0 10.4 0H15.2Z" fill="white"/>
</svg>
