<svg width="67" height="38" viewBox="0 0 67 38" fill="none" xmlns="http://www.w3.org/2000/svg">
<rect width="68" height="37.8122" rx="6" fill="#1F1F1F"/>
<path fill-rule="evenodd" clip-rule="evenodd" d="M26.0002 9.54798C25.7442 9.54798 25.4882 9.64299 25.2932 9.83206L17.2932 17.5884C16.9022 17.9675 16.9022 18.5802 17.2932 18.9593L25.2933 26.7157C25.6842 27.0948 26.3162 27.0948 26.7072 26.7157C27.0982 26.3366 27.0982 25.7238 26.7072 25.3447L19.4142 18.2739L26.7072 11.203C27.0982 10.8239 27.0982 10.2111 26.7072 9.83206C26.5122 9.64299 26.2562 9.54798 26.0002 9.54798Z" fill="white"/>
<path fill-rule="evenodd" clip-rule="evenodd" d="M18.0002 9.54798C17.7442 9.54798 17.4882 9.64299 17.2932 9.83206L9.29325 17.5884C8.90225 17.9675 8.90225 18.5802 9.29325 18.9593L17.2933 26.7157C17.6842 27.0948 18.3162 27.0948 18.7072 26.7157C19.0982 26.3366 19.0982 25.7238 18.7072 25.3447L11.4142 18.2739L18.7072 11.203C19.0982 10.8239 19.0982 10.2111 18.7072 9.83206C18.5122 9.64299 18.2562 9.54798 18.0002 9.54798Z" fill="white"/>
<path fill-rule="evenodd" clip-rule="evenodd" d="M49 8C50.6569 8 52 9.34315 52 11V25C52 26.6569 50.6569 28 49 28H43C41.3431 28 40 26.6569 40 25V11C40 9.34315 41.3431 8 43 8H49ZM49 10H43C42.4477 10 42 10.4477 42 11V25C42 25.5523 42.4477 26 43 26H49C49.5523 26 50 25.5523 50 25V11C50 10.4477 49.5523 10 49 10ZM37 12C37.5523 12 38 12.4477 38 13V23C38 23.5523 37.5523 24 37 24C36.4477 24 36 23.5523 36 23V13C36 12.4477 36.4477 12 37 12ZM55 12C55.5523 12 56 12.4477 56 13V23C56 23.5523 55.5523 24 55 24C54.4477 24 54 23.5523 54 23V13C54 12.4477 54.4477 12 55 12Z" fill="white"/>
</svg>
