<svg width="126" height="126" viewBox="0 0 126 126" fill="none" xmlns="http://www.w3.org/2000/svg">
<path fill-rule="evenodd" clip-rule="evenodd" d="M63 23C72.9301 23 81.0295 31.277 81.4489 41.6541L81.466 42.5V54.2C84.0946 54.2 86.5095 55.1667 88.4091 56.7818C90.9315 58.9264 92.5455 62.2141 92.5455 65.9V89.3C92.5455 95.7617 87.585 101 81.466 101H44.5341C38.4151 101 33.4546 95.7617 33.4546 89.3V65.9C33.4546 59.4383 38.4151 54.2 44.5341 54.2V42.5C44.5341 31.7304 52.8016 23 63 23ZM63.6511 30.8198L63 30.8C57.0995 30.8 52.2763 35.6708 51.9393 41.8125L51.9205 42.5V54.2H74.0796V42.5C74.0796 36.269 69.4671 31.1757 63.6511 30.8198L63 30.8L63.6511 30.8198Z" fill="#E21616"/>
<rect x="33" y="54" width="60" height="47" rx="9" fill="#E21616"/>
<path fill-rule="evenodd" clip-rule="evenodd" d="M56 69.3142C56 68.3014 57.0764 67.6704 57.9335 68.1807L73.3621 77.3665C74.2126 77.8729 74.2126 79.1271 73.3621 79.6335L57.9335 88.8193C57.0764 89.3296 56 88.6986 56 87.6858V69.3142Z" fill="white"/>
</svg>
