<svg width="68" height="38" viewBox="0 0 68 38" fill="none" xmlns="http://www.w3.org/2000/svg">
<rect width="68" height="37.8122" rx="6" fill="#1F1F1F"/>
<path fill-rule="evenodd" clip-rule="evenodd" d="M39.9998 27.1473C40.2557 27.1473 40.5118 27.0523 40.7067 26.8633L48.7068 19.1069C49.0978 18.7278 49.0978 18.1151 48.7068 17.736L40.7067 9.97963C40.3158 9.60054 39.6838 9.60054 39.2928 9.97963C38.9018 10.3587 38.9018 10.9715 39.2928 11.3506L46.5858 18.4214L39.2928 25.4923C38.9018 25.8714 38.9018 26.4842 39.2928 26.8633C39.4878 27.0523 39.7438 27.1473 39.9998 27.1473Z" fill="white"/>
<path fill-rule="evenodd" clip-rule="evenodd" d="M47.9998 27.1473C48.2557 27.1473 48.5118 27.0523 48.7067 26.8633L56.7068 19.1069C57.0978 18.7278 57.0978 18.1151 56.7068 17.736L48.7067 9.97963C48.3158 9.60054 47.6838 9.60054 47.2928 9.97963C46.9018 10.3587 46.9018 10.9715 47.2928 11.3506L54.5858 18.4214L47.2928 25.4923C46.9018 25.8714 46.9018 26.4842 47.2928 26.8633C47.4878 27.0523 47.7438 27.1473 47.9998 27.1473Z" fill="white"/>
<path fill-rule="evenodd" clip-rule="evenodd" d="M27 26C27 27.6569 25.6569 29 24 29L22 29C21.4477 29 21 28.5523 21 28C21 26.8954 20.1046 26 19 26C17.9456 26 17.0818 26.8159 17.0055 27.8507L16.9933 28.1166C16.9355 28.614 16.5128 29 16 29L14 29C12.3431 29 11 27.6569 11 26L11 12C11 10.3431 12.3431 9 14 9L16 9C16.5128 9 16.9355 9.38604 16.9933 9.88338L17.0055 10.1493C17.0818 11.1841 17.9456 12 19 12C20.1046 12 21 11.1046 21 10C21 9.44771 21.4477 9 22 9L24 9C25.6569 9 27 10.3431 27 12L27 26ZM25 20L25 12C25 11.4477 24.5523 11 24 11L22.874 11C22.4299 12.7252 20.8638 14 19 14C17.1362 14 15.5701 12.7252 15.126 11L14 11C13.4477 11 13 11.4477 13 12L13 20L14 20C14.5523 20 15 20.4477 15 21C15 21.5523 14.5523 22 14 22L13 22L13 26C13 26.5523 13.4477 27 14 27L15.126 27C15.5701 25.2748 17.1362 24 19 24C20.7948 24 22.3135 25.1821 22.8201 26.8102L22.874 27L24 27C24.5523 27 25 26.5523 25 26L25 22L24 22C23.4477 22 23 21.5523 23 21C23 20.4477 23.4477 20 24 20L25 20ZM21 21C21 21.5523 20.5523 22 20 22L18 22C17.4477 22 17 21.5523 17 21C17 20.4477 17.4477 20 18 20L20 20C20.5523 20 21 20.4477 21 21Z" fill="white"/>
</svg>
