<svg width="16" height="20" viewBox="0 0 16 20" fill="none" xmlns="http://www.w3.org/2000/svg">
<path fill-rule="evenodd" clip-rule="evenodd" d="M16 17C16 18.6569 14.6569 20 13 20L11 20C10.4477 20 10 19.5523 10 19C10 17.8954 9.10457 17 8 17C6.94564 17 6.08183 17.8159 6.00548 18.8507L5.99327 19.1166C5.93551 19.614 5.51283 20 5 20L3 20C1.34314 20 -8.15517e-07 18.6569 -7.43094e-07 17L-1.31134e-07 3C-5.87108e-08 1.34315 1.34315 -6.40671e-07 3 -5.68248e-07L5 -4.80825e-07C5.51284 -4.58409e-07 5.93551 0.38604 5.99327 0.883378L6.00549 1.14926C6.08183 2.18412 6.94564 3 8 3C9.10457 3 10 2.10457 10 1C10 0.447715 10.4477 -2.42698e-07 11 -2.18557e-07L13 -1.31134e-07C14.6569 -5.87107e-08 16 1.34315 16 3L16 17ZM14 11L14 3C14 2.44772 13.5523 2 13 2L11.874 2C11.4299 3.72523 9.86384 5 8 5C6.13616 5 4.57006 3.72523 4.12602 2L3 2C2.44771 2 2 2.44771 2 3L2 11L3 11C3.55228 11 4 11.4477 4 12C4 12.5523 3.55228 13 3 13L2 13L2 17C2 17.5523 2.44771 18 3 18L4.12602 18C4.57006 16.2748 6.13616 15 8 15C9.79481 15 11.3135 16.1821 11.8201 17.8102L11.874 18L13 18C13.5523 18 14 17.5523 14 17L14 13L13 13C12.4477 13 12 12.5523 12 12C12 11.4477 12.4477 11 13 11L14 11ZM10 12C10 12.5523 9.55228 13 9 13L7 13C6.44771 13 6 12.5523 6 12C6 11.4477 6.44771 11 7 11L9 11C9.55228 11 10 11.4477 10 12Z" fill="white"/>
</svg>
