<svg width="20" height="20" viewBox="0 0 20 20" fill="none" xmlns="http://www.w3.org/2000/svg">
<path fill-rule="evenodd" clip-rule="evenodd" d="M13 0C14.6569 0 16 1.34315 16 3V17C16 18.6569 14.6569 20 13 20H7C5.34315 20 4 18.6569 4 17V3C4 1.34315 5.34315 0 7 0H13ZM13 2H7C6.44772 2 6 2.44772 6 3V17C6 17.5523 6.44772 18 7 18H13C13.5523 18 14 17.5523 14 17V3C14 2.44772 13.5523 2 13 2ZM1 4C1.55228 4 2 4.44772 2 5V15C2 15.5523 1.55228 16 1 16C0.447715 16 0 15.5523 0 15V5C0 4.44772 0.447715 4 1 4ZM19 4C19.5523 4 20 4.44772 20 5V15C20 15.5523 19.5523 16 19 16C18.4477 16 18 15.5523 18 15V5C18 4.44772 18.4477 4 19 4Z" fill="white"/>
</svg>
