<svg width="13" height="14" viewBox="0 0 13 14" fill="none" xmlns="http://www.w3.org/2000/svg">
<path fill-rule="evenodd" clip-rule="evenodd" d="M5.78342 0.00201983L7.16305 0.00195312C7.20476 0.00388941 7.24139 0.00866082 7.29284 0.0198628C7.67013 0.102025 7.81357 0.237512 8.1647 1.0673L8.22193 1.20419L8.44259 1.751L8.46074 1.75846L8.74505 1.62975C9.36426 1.35282 9.68347 1.23618 9.89809 1.20364L9.94254 1.19792L10.0236 1.19355C10.2168 1.19355 10.4137 1.262 10.5643 1.38119L10.6355 1.44493L11.5176 2.32336L11.5789 2.38817C11.8559 2.69339 11.8818 2.90978 11.5753 3.69842L11.4734 3.95284L11.233 4.52162L11.2376 4.53273L11.7882 4.73837L12.0536 4.84329C12.7394 5.12367 12.8802 5.27311 12.9719 5.61637C12.9904 5.68558 12.9969 5.73274 12.9991 5.79127L13 5.85483V7.09497C13 7.18313 12.997 7.23292 12.9753 7.32005C12.884 7.68649 12.7486 7.82603 11.9246 8.17415L11.7886 8.23091L11.2456 8.45005L11.2419 8.4592L11.4382 8.88817C11.9264 9.97344 11.9435 10.2114 11.6226 10.5688L11.5825 10.6123L10.6771 11.5171C10.515 11.681 10.2841 11.7712 10.0606 11.7712C9.87088 11.7712 9.57285 11.681 9.06484 11.4772L8.79286 11.3658L8.48306 11.2348L8.46534 11.2421L8.30527 11.6715C7.91335 12.7041 7.77908 12.8718 7.37645 12.9757C7.31696 12.9911 7.27441 12.9976 7.22609 13.0003L7.14645 13.002H5.90566C5.82822 13.002 5.78451 12.9996 5.7076 12.983C5.33046 12.9012 5.18644 12.7654 4.83462 11.9351L4.77728 11.7981L4.55624 11.251L4.53923 11.244L4.1263 11.4297C3.4658 11.7205 3.17967 11.809 2.97574 11.809C2.78477 11.809 2.5903 11.7419 2.4356 11.6215L2.36177 11.557L1.48098 10.6773L1.3804 10.5676C1.13885 10.2834 1.12698 10.0629 1.42346 9.30432L1.57796 8.92458L1.76655 8.4812L1.76262 8.47167L1.33564 8.31255C0.479105 7.98749 0.215137 7.83777 0.0896986 7.56442L0.055769 7.47841L0.0274268 7.38318C0.0113898 7.32231 0.00454576 7.27869 0.00176497 7.22906L0 7.1472V5.90632C0 5.81747 0.00307966 5.76724 0.0252019 5.67937C0.10768 5.35174 0.224745 5.20624 0.841404 4.92989L1.09698 4.81951L1.75326 4.55409L1.75776 4.54316L1.51238 4.0017C1.10749 3.08196 1.07396 2.80191 1.32942 2.48913L1.36437 2.4481L1.44714 2.36036L2.32451 1.4849C2.48525 1.32325 2.71518 1.23211 2.93897 1.23211C3.09904 1.23211 3.33407 1.29546 3.71023 1.43794L4.08867 1.58798L4.51768 1.7678L4.53527 1.76048L4.69657 1.32831C5.09213 0.288219 5.23333 0.114282 5.65059 0.0208677C5.70322 0.00908424 5.74077 0.00406003 5.78342 0.00201983ZM6.83996 1.30085H6.11525L6.01307 1.54041C5.97426 1.63565 5.93049 1.7469 5.88106 1.87602L5.65456 2.48196C5.60024 2.62542 5.49729 2.74424 5.36494 2.81856L5.29641 2.85192L4.76398 3.07349C4.62956 3.12943 4.48109 3.13831 4.34226 3.10021L4.26031 3.07172L3.63042 2.80618L3.29018 2.67049L3.06149 2.58608L2.54785 3.0986L2.6083 3.2513C2.63193 3.30882 2.65911 3.37312 2.69011 3.44476L2.79481 3.68221L3.05738 4.25628C3.12028 4.39299 3.13342 4.54636 3.0963 4.69033L3.06798 4.77537L2.85027 5.30447C2.79263 5.44456 2.68824 5.55935 2.55608 5.63014L2.48777 5.66178L1.78084 5.94597L1.42746 6.09746L1.3 6.15649V6.89116L1.45251 6.95729C1.51025 6.98144 1.57509 7.00777 1.64761 7.0365L1.88876 7.1301L2.47476 7.34773C2.6225 7.401 2.74509 7.50558 2.82112 7.64104L2.85516 7.71124L3.0729 8.23879C3.12881 8.37426 3.137 8.52379 3.09768 8.66324L3.06839 8.74551L2.81569 9.33858L2.6572 9.7298L2.57999 9.93754L3.09367 10.4506L3.24661 10.3901C3.30295 10.3672 3.3647 10.3414 3.432 10.3127L3.9038 10.1047L4.24405 9.948C4.38643 9.87997 4.54781 9.86643 4.69818 9.90819L4.7723 9.93368L5.30786 10.1548C5.44981 10.2134 5.56564 10.32 5.63598 10.4548L5.66727 10.5244L5.80055 10.8607L5.99022 11.322L6.09998 11.574L6.1595 11.7018H6.88635L6.99015 11.4571L7.12534 11.1118L7.34549 10.5216C7.39977 10.3768 7.50349 10.257 7.63699 10.1824L7.70613 10.149L8.23941 9.92887C8.37227 9.87403 8.51875 9.86508 8.65603 9.90198L8.73712 9.92962L9.23929 10.1426L9.60579 10.2919L9.80636 10.3693L9.93872 10.4172L10.453 9.9038L10.3539 9.65921L10.2052 9.32018L9.94213 8.74658C9.879 8.60963 9.86582 8.45592 9.90312 8.31169L9.93156 8.22649L10.1489 7.69968C10.2062 7.56068 10.3096 7.44661 10.4406 7.37581L10.5082 7.34409L11.107 7.10339L11.4126 6.97526L11.4966 6.93871L11.7 6.84565V6.1117L11.4961 6.02466L11.22 5.91537L10.5229 5.65586C10.3755 5.60222 10.2533 5.49745 10.1777 5.36199L10.1438 5.29179L9.92647 4.76211C9.87102 4.62697 9.863 4.47794 9.90218 4.33894L9.93135 4.25693L10.1332 3.78506C10.1857 3.66027 10.2314 3.54961 10.2709 3.4518L10.3417 3.27295L10.4189 3.06395L9.90494 2.55209L9.75189 2.61266C9.66726 2.64717 9.57028 2.68814 9.46025 2.73598L9.34585 2.78612L8.74599 3.05822C8.60952 3.12076 8.45654 3.13376 8.31292 3.09673L8.22808 3.06849L7.69287 2.84847C7.55277 2.79087 7.43795 2.68651 7.36712 2.55435L7.33545 2.48604L7.14622 2.01254L7.00908 1.68082L6.93313 1.5044L6.83996 1.30085ZM6.5003 3.90109C7.9343 3.90109 9.09999 5.06666 9.09999 6.50077C9.09999 7.93497 7.93421 9.10158 6.5003 9.10158C5.06598 9.10158 3.89999 7.93518 3.89999 6.50077C3.89999 5.06646 5.06589 3.90109 6.5003 3.90109ZM6.5003 5.20121C5.78371 5.20121 5.2 5.78466 5.2 6.50077C5.2 7.21722 5.78403 7.80146 6.5003 7.80146C7.21606 7.80146 7.8 7.21711 7.8 6.50077C7.8 5.78476 7.21639 5.20121 6.5003 5.20121Z" fill="white"/>
</svg>
