<svg width="15" height="15" viewBox="0 0 15 15" fill="none" xmlns="http://www.w3.org/2000/svg">
<path fill-rule="evenodd" clip-rule="evenodd" d="M7.5 0.392212C11.6421 0.392212 15 3.62983 15 7.62363C15 11.6174 11.6421 14.855 7.5 14.855C3.35786 14.855 0 11.6174 0 7.62363C0 3.62983 3.35786 0.392212 7.5 0.392212ZM7.5 1.83852C4.18629 1.83852 1.5 4.42862 1.5 7.62366C1.5 10.8187 4.18629 13.4088 7.5 13.4088C10.8137 13.4088 13.5 10.8187 13.5 7.62366C13.5 4.42862 10.8137 1.83852 7.5 1.83852ZM7.5 11.9624C9.15685 11.9624 10.5 10.6674 10.5 9.06985H4.5L4.50367 9.21422C4.58169 10.7447 5.89335 11.9624 7.5 11.9624ZM4.875 4.73103C5.49632 4.73103 6 5.21667 6 5.81574C6 6.41481 5.49632 6.90046 4.875 6.90046C4.25368 6.90046 3.75 6.41481 3.75 5.81574C3.75 5.21667 4.25368 4.73103 4.875 4.73103ZM11.25 5.81574C11.25 5.21667 10.7463 4.73103 10.125 4.73103C9.50368 4.73103 9 5.21667 9 5.81574C9 6.41481 9.50368 6.90046 10.125 6.90046C10.7463 6.90046 11.25 6.41481 11.25 5.81574Z" fill="white"/>
</svg>
