<svg width="10" height="9" viewBox="0 0 10 9" fill="none" xmlns="http://www.w3.org/2000/svg">
<path d="M7.28548 0.498169L7.16044 0.623459V0.498169H6.54446C6.26673 0.927343 5.68038 1.224 4.99963 1.224C4.31913 1.224 3.73278 0.927343 3.45505 0.498169H2.83907V0.623459L2.71378 0.498169L0.498413 2.71478L1.71021 3.92757L2.83907 2.79822V8.44548H7.15994V2.79847L8.28905 3.92782L9.5006 2.71478L7.28548 0.498169Z" fill="white"/>
<path d="M7.15995 8.94365H2.83907C2.56408 8.94365 2.3409 8.72047 2.3409 8.44548V4.0013L2.06242 4.27978C1.96902 4.37344 1.84223 4.42574 1.70997 4.42574C1.57795 4.42574 1.45092 4.37319 1.35751 4.27978L0.145715 3.06698C-0.0485716 2.87245 -0.0485716 2.55736 0.145715 2.36257L2.36158 0.145964C2.46968 0.0376118 2.62585 -0.0149451 2.7763 0.00398537C2.79698 0.00149452 2.8179 0 2.83907 0H3.45506C3.62394 0 3.78161 0.0856852 3.87327 0.227415C4.0693 0.530302 4.51143 0.725834 4.99964 0.725834C5.48784 0.725834 5.93022 0.530302 6.12625 0.227415C6.21791 0.0856852 6.37533 0 6.54446 0H7.16045C7.18162 0 7.20254 0.00124543 7.22322 0.00398537C7.24364 0.00149452 7.26432 0 7.28524 0C7.28549 0 7.28549 0 7.28549 0C7.4175 0 7.54429 0.0525569 7.63794 0.145964L9.85331 2.36232C10.0476 2.55686 10.0476 2.87195 9.85331 3.06674L8.64176 4.27978C8.54835 4.37319 8.42157 4.42574 8.28955 4.42574C8.2893 4.42574 8.2893 4.42574 8.2893 4.42574C8.15729 4.42599 8.0305 4.37344 7.9371 4.28003L7.65837 4.00105V8.44548C7.65812 8.72072 7.43519 8.94365 7.15995 8.94365ZM3.33724 7.94731H6.66178V2.79847C6.66178 2.59696 6.78308 2.41538 6.96915 2.33816C7.15547 2.2607 7.36943 2.30354 7.51216 2.44626L8.2888 3.22291L8.79644 2.71478L7.20254 1.11989C7.12309 1.12711 7.04487 1.11466 6.9699 1.08377C6.91784 1.06235 6.87076 1.03246 6.82991 0.99634H6.78707C6.37583 1.44968 5.71675 1.72217 4.99964 1.72217C4.28252 1.72217 3.62369 1.44968 3.2122 0.99634H3.16936C3.12876 1.03246 3.08168 1.0621 3.02962 1.08377C2.95415 1.1149 2.87394 1.12586 2.79648 1.11989L1.20233 2.71503L1.70997 3.22316L2.48637 2.44626C2.62884 2.30354 2.84306 2.26095 3.02937 2.33816C3.21569 2.41538 3.33699 2.59696 3.33699 2.79847V7.94731H3.33724Z" fill="white"/>
</svg>
